<?xml version="1.0" encoding="utf-8"?>
<!-- Generator: Adobe Illustrator 27.6.1, SVG Export Plug-In . SVG Version: 6.00 Build 0)  -->
<svg version="1.1" id="Layer_1" xmlns="http://www.w3.org/2000/svg" xmlns:xlink="http://www.w3.org/1999/xlink" x="0px" y="0px"
	 viewBox="0 0 24 62" style="enable-background:new 0 0 24 62;" xml:space="preserve">
<style type="text/css">
	.st0{fill:url(#SVGID_1_);}
	.st1{fill:#010101;stroke:#010101;stroke-width:0.75;stroke-miterlimit:10;}
	.st2{fill:url(#SVGID_00000054258370706312169020000009255346770711354503_);}
	.st3{fill:url(#SVGID_00000057836443224483802010000015904421211644563113_);}
	.st4{fill:url(#SVGID_00000068654818999366021990000017033840830421977776_);}
	.st5{fill:url(#SVGID_00000053515765570278062840000005658658975862628030_);}
	.st6{fill:url(#SVGID_00000174583620322017457760000002616202059689528499_);}
	.st7{fill:url(#SVGID_00000114785951960614699170000008789650924904945575_);}
	.st8{fill:url(#SVGID_00000173131112011188102340000007597951028203852441_);}
	.st9{fill:url(#SVGID_00000006666326772059375910000017554503941252871571_);}
	.st10{fill:url(#SVGID_00000135683114868716161840000012456497505632403852_);}
	.st11{fill:url(#SVGID_00000122716869908521375520000007396809969744395660_);}
	.st12{fill:url(#SVGID_00000080919195495127438520000014538653883287843483_);}
	.st13{fill:url(#SVGID_00000017508257053035825610000002595140108838799009_);}
</style>
<g>
	<g>
		
			<linearGradient id="SVGID_1_" gradientUnits="userSpaceOnUse" x1="1.27" y1="3.8464" x2="23.25" y2="3.8464" gradientTransform="matrix(1 0 0 -1 0 64)">
			<stop  offset="0" style="stop-color:#010101"/>
			<stop  offset="0.1105" style="stop-color:#1C1C1D"/>
			<stop  offset="0.2798" style="stop-color:#875734"/>
			<stop  offset="0.487" style="stop-color:#A78573"/>
			<stop  offset="0.7239" style="stop-color:#CC8E6A"/>
			<stop  offset="0.9829" style="stop-color:#FBBC94"/>
			<stop  offset="1" style="stop-color:#FDCFAB"/>
		</linearGradient>
		<path class="st0" d="M23.25,60.16c0.01-0.28-4.06-0.51-12.19-0.96c-4.12-0.23-7.52-0.39-9.79-0.49v2.89c0,0,4.65-0.21,9.67-0.48
			C18.82,60.69,23.24,60.46,23.25,60.16z"/>
		<ellipse class="st1" cx="1.28" cy="60.15" rx="0.81" ry="1.07"/>
	</g>
	<g>
		
			<linearGradient id="SVGID_00000145737065918989591150000003215763096553062813_" gradientUnits="userSpaceOnUse" x1="1.98" y1="8.7064" x2="21.13" y2="8.7064" gradientTransform="matrix(1 0 0 -1 0 64)">
			<stop  offset="0" style="stop-color:#010101"/>
			<stop  offset="0.1105" style="stop-color:#1C1C1D"/>
			<stop  offset="0.2798" style="stop-color:#875734"/>
			<stop  offset="0.487" style="stop-color:#A78573"/>
			<stop  offset="0.7239" style="stop-color:#CC8E6A"/>
			<stop  offset="0.9829" style="stop-color:#FBBC94"/>
			<stop  offset="1" style="stop-color:#FDCFAB"/>
		</linearGradient>
		<path style="fill:url(#SVGID_00000145737065918989591150000003215763096553062813_);" d="M21.13,55.3
			c0.01-0.28-3.54-0.51-10.62-0.96c-3.59-0.23-6.55-0.39-8.53-0.49v2.89c0,0,4.05-0.21,8.43-0.48C17.27,55.83,21.12,55.6,21.13,55.3
			z"/>
		<ellipse class="st1" cx="1.99" cy="55.29" rx="0.7" ry="1.07"/>
	</g>
	<g>
		
			<linearGradient id="SVGID_00000054250880837527539610000015339777390372389039_" gradientUnits="userSpaceOnUse" x1="5.11" y1="13.5664" x2="19.7" y2="13.5664" gradientTransform="matrix(1 0 0 -1 0 64)">
			<stop  offset="0" style="stop-color:#010101"/>
			<stop  offset="0.1105" style="stop-color:#1C1C1D"/>
			<stop  offset="0.2798" style="stop-color:#875734"/>
			<stop  offset="0.487" style="stop-color:#A78573"/>
			<stop  offset="0.7239" style="stop-color:#CC8E6A"/>
			<stop  offset="0.9829" style="stop-color:#FBBC94"/>
			<stop  offset="1" style="stop-color:#FDCFAB"/>
		</linearGradient>
		<path style="fill:url(#SVGID_00000054250880837527539610000015339777390372389039_);" d="M19.7,50.44
			c0.01-0.28-2.69-0.51-8.09-0.96c-2.73-0.23-4.99-0.39-6.5-0.49v2.89c0,0,3.09-0.21,6.42-0.48C16.76,50.97,19.7,50.74,19.7,50.44z"
			/>
		<ellipse class="st1" cx="5.12" cy="50.43" rx="0.53" ry="1.07"/>
	</g>
	<g>
		
			<linearGradient id="SVGID_00000176025129861227640100000009642731754979764648_" gradientUnits="userSpaceOnUse" x1="8.98" y1="18.4264" x2="16.9" y2="18.4264" gradientTransform="matrix(1 0 0 -1 0 64)">
			<stop  offset="0" style="stop-color:#010101"/>
			<stop  offset="0.1105" style="stop-color:#1C1C1D"/>
			<stop  offset="0.2798" style="stop-color:#875734"/>
			<stop  offset="0.487" style="stop-color:#A78573"/>
			<stop  offset="0.7239" style="stop-color:#CC8E6A"/>
			<stop  offset="0.9829" style="stop-color:#FBBC94"/>
			<stop  offset="1" style="stop-color:#FDCFAB"/>
		</linearGradient>
		<path style="fill:url(#SVGID_00000176025129861227640100000009642731754979764648_);" d="M16.9,45.58c0-0.28-1.46-0.51-4.39-0.96
			c-1.48-0.23-2.71-0.39-3.53-0.49v2.89c0,0,1.67-0.21,3.48-0.48C15.3,46.11,16.89,45.88,16.9,45.58z"/>
		<ellipse class="st1" cx="8.98" cy="45.57" rx="0.29" ry="1.07"/>
	</g>
	<g>
		
			<linearGradient id="SVGID_00000016058138130977933210000014879042943790609808_" gradientUnits="userSpaceOnUse" x1="-65.2902" y1="487.3009" x2="-51.6602" y2="487.3009" gradientTransform="matrix(-1 0 0 1 -46.5402 -446.6072)">
			<stop  offset="0" style="stop-color:#010101"/>
			<stop  offset="0.1105" style="stop-color:#1C1C1D"/>
			<stop  offset="0.2798" style="stop-color:#875734"/>
			<stop  offset="0.487" style="stop-color:#A78573"/>
			<stop  offset="0.7239" style="stop-color:#CC8E6A"/>
			<stop  offset="0.9829" style="stop-color:#FBBC94"/>
			<stop  offset="1" style="stop-color:#FDCFAB"/>
		</linearGradient>
		<path style="fill:url(#SVGID_00000016058138130977933210000014879042943790609808_);" d="M5.12,40.69
			c-0.01,0.28,2.51,0.51,7.56,0.96c2.55,0.23,4.66,0.39,6.07,0.49v-2.89c0,0-2.88,0.21-5.99,0.48C7.87,40.16,5.12,40.4,5.12,40.69z"
			/>
		<ellipse class="st1" cx="18.73" cy="40.71" rx="0.5" ry="1.07"/>
	</g>
	<g>
		
			<linearGradient id="SVGID_00000183943098049175490750000015487857510246602668_" gradientUnits="userSpaceOnUse" x1="-68.2502" y1="482.4409" x2="-47.8202" y2="482.4409" gradientTransform="matrix(-1 0 0 1 -46.5402 -446.6072)">
			<stop  offset="0" style="stop-color:#010101"/>
			<stop  offset="0.1105" style="stop-color:#1C1C1D"/>
			<stop  offset="0.2798" style="stop-color:#875734"/>
			<stop  offset="0.487" style="stop-color:#A78573"/>
			<stop  offset="0.7239" style="stop-color:#CC8E6A"/>
			<stop  offset="0.9829" style="stop-color:#FBBC94"/>
			<stop  offset="1" style="stop-color:#FDCFAB"/>
		</linearGradient>
		<path style="fill:url(#SVGID_00000183943098049175490750000015487857510246602668_);" d="M1.28,35.83
			c-0.01,0.28,3.77,0.51,11.33,0.96c3.83,0.23,6.99,0.39,9.1,0.49v-2.89c0,0-4.32,0.21-8.99,0.48C5.41,35.3,1.29,35.54,1.28,35.83z"
			/>
		<ellipse class="st1" cx="21.71" cy="35.85" rx="0.75" ry="1.07"/>
	</g>
	<g>
		
			<linearGradient id="SVGID_00000039814227905067674230000012045155214404284316_" gradientUnits="userSpaceOnUse" x1="-64.4281" y1="514.7818" x2="-42.4481" y2="514.7818" gradientTransform="matrix(-1 0 0 1 -41.9681 -483.8081)">
			<stop  offset="0" style="stop-color:#010101"/>
			<stop  offset="0.1105" style="stop-color:#1C1C1D"/>
			<stop  offset="0.2798" style="stop-color:#875734"/>
			<stop  offset="0.487" style="stop-color:#A78573"/>
			<stop  offset="0.7239" style="stop-color:#CC8E6A"/>
			<stop  offset="0.9829" style="stop-color:#FBBC94"/>
			<stop  offset="1" style="stop-color:#FDCFAB"/>
		</linearGradient>
		<path style="fill:url(#SVGID_00000039814227905067674230000012045155214404284316_);" d="M0.48,30.97
			c-0.01,0.28,4.06,0.51,12.19,0.96c4.12,0.23,7.52,0.39,9.79,0.49v-2.89c0,0-4.65,0.21-9.67,0.48C4.92,30.44,0.49,30.68,0.48,30.97
			z"/>
		<ellipse class="st1" cx="22.45" cy="30.99" rx="0.81" ry="1.07"/>
	</g>
	<g>
		
			<linearGradient id="SVGID_00000072982565124582073520000013441560420420544162_" gradientUnits="userSpaceOnUse" x1="-64.1581" y1="509.9218" x2="-42.4481" y2="509.9218" gradientTransform="matrix(-1 0 0 1 -41.9681 -483.8081)">
			<stop  offset="0" style="stop-color:#010101"/>
			<stop  offset="0.1105" style="stop-color:#1C1C1D"/>
			<stop  offset="0.2798" style="stop-color:#875734"/>
			<stop  offset="0.487" style="stop-color:#A78573"/>
			<stop  offset="0.7239" style="stop-color:#CC8E6A"/>
			<stop  offset="0.9829" style="stop-color:#FBBC94"/>
			<stop  offset="1" style="stop-color:#FDCFAB"/>
		</linearGradient>
		<path style="fill:url(#SVGID_00000072982565124582073520000013441560420420544162_);" d="M0.48,26.11
			c-0.01,0.28,4.01,0.51,12.04,0.96c4.07,0.23,7.43,0.39,9.67,0.49v-2.89c0,0-4.59,0.21-9.55,0.48C4.86,25.58,0.49,25.82,0.48,26.11
			z"/>
		<ellipse class="st1" cx="22.18" cy="26.12" rx="0.8" ry="1.07"/>
	</g>
	<g>
		
			<linearGradient id="SVGID_00000146462835556852618820000017842463233626286254_" gradientUnits="userSpaceOnUse" x1="-60.7081" y1="505.0618" x2="-47.128" y2="505.0618" gradientTransform="matrix(-1 0 0 1 -41.9681 -483.8081)">
			<stop  offset="0" style="stop-color:#010101"/>
			<stop  offset="0.1105" style="stop-color:#1C1C1D"/>
			<stop  offset="0.2798" style="stop-color:#875734"/>
			<stop  offset="0.487" style="stop-color:#A78573"/>
			<stop  offset="0.7239" style="stop-color:#CC8E6A"/>
			<stop  offset="0.9829" style="stop-color:#FBBC94"/>
			<stop  offset="1" style="stop-color:#FDCFAB"/>
		</linearGradient>
		<path style="fill:url(#SVGID_00000146462835556852618820000017842463233626286254_);" d="M5.16,21.25
			c-0.01,0.28,2.51,0.51,7.53,0.96c2.54,0.23,4.65,0.39,6.05,0.49v-2.89c0,0-2.87,0.21-5.98,0.48C7.9,20.72,5.16,20.96,5.16,21.25z"
			/>
		<ellipse class="st1" cx="18.73" cy="21.26" rx="0.5" ry="1.07"/>
	</g>
	<g>
		
			<linearGradient id="SVGID_00000054238336802846901830000010341985256365361824_" gradientUnits="userSpaceOnUse" x1="8.94" y1="16.4125" x2="16.03" y2="16.4125" gradientTransform="matrix(1 0 0 -1 0 32.8261)">
			<stop  offset="0" style="stop-color:#010101"/>
			<stop  offset="0.1105" style="stop-color:#1C1C1D"/>
			<stop  offset="0.2798" style="stop-color:#875734"/>
			<stop  offset="0.487" style="stop-color:#A78573"/>
			<stop  offset="0.7239" style="stop-color:#CC8E6A"/>
			<stop  offset="0.9829" style="stop-color:#FBBC94"/>
			<stop  offset="1" style="stop-color:#FDCFAB"/>
		</linearGradient>
		<path style="fill:url(#SVGID_00000054238336802846901830000010341985256365361824_);" d="M16.03,16.42c0-0.28-1.31-0.51-3.93-0.96
			c-1.33-0.23-2.42-0.39-3.16-0.49v2.89c0,0,1.5-0.21,3.12-0.48C14.6,16.95,16.02,16.71,16.03,16.42z"/>
		<ellipse class="st1" cx="8.95" cy="16.4" rx="0.26" ry="1.07"/>
	</g>
	<g>
		
			<linearGradient id="SVGID_00000014611784831696005400000018285809742659260337_" gradientUnits="userSpaceOnUse" x1="5.56" y1="52.4463" x2="18.99" y2="52.4463" gradientTransform="matrix(1 0 0 -1 0 64)">
			<stop  offset="0" style="stop-color:#010101"/>
			<stop  offset="0.1105" style="stop-color:#1C1C1D"/>
			<stop  offset="0.2798" style="stop-color:#875734"/>
			<stop  offset="0.487" style="stop-color:#A78573"/>
			<stop  offset="0.7239" style="stop-color:#CC8E6A"/>
			<stop  offset="0.9829" style="stop-color:#FBBC94"/>
			<stop  offset="1" style="stop-color:#FDCFAB"/>
		</linearGradient>
		<path style="fill:url(#SVGID_00000014611784831696005400000018285809742659260337_);" d="M18.99,11.56
			c0.01-0.28-2.48-0.51-7.45-0.96c-2.51-0.23-4.59-0.39-5.98-0.49V13c0,0,2.84-0.21,5.9-0.48C16.28,12.09,18.98,11.85,18.99,11.56z"
			/>
		<ellipse class="st1" cx="5.57" cy="11.54" rx="0.49" ry="1.07"/>
	</g>
	<g>
		
			<linearGradient id="SVGID_00000051341127639096904900000010676785195989054652_" gradientUnits="userSpaceOnUse" x1="2.47" y1="57.3063" x2="22.18" y2="57.3063" gradientTransform="matrix(1 0 0 -1 0 64)">
			<stop  offset="0" style="stop-color:#010101"/>
			<stop  offset="0.1105" style="stop-color:#1C1C1D"/>
			<stop  offset="0.2798" style="stop-color:#875734"/>
			<stop  offset="0.487" style="stop-color:#A78573"/>
			<stop  offset="0.7239" style="stop-color:#CC8E6A"/>
			<stop  offset="0.9829" style="stop-color:#FBBC94"/>
			<stop  offset="1" style="stop-color:#FDCFAB"/>
		</linearGradient>
		<path style="fill:url(#SVGID_00000051341127639096904900000010676785195989054652_);" d="M22.18,6.7
			c0.01-0.28-3.64-0.51-10.93-0.96C7.56,5.51,4.51,5.35,2.47,5.25v2.89c0,0,4.17-0.21,8.67-0.48C18.2,7.23,22.17,6.99,22.18,6.7z"/>
		<ellipse class="st1" cx="2.47" cy="6.68" rx="0.72" ry="1.07"/>
	</g>
	<g>
		
			<linearGradient id="SVGID_00000061431687074141638830000016350404803054903705_" gradientUnits="userSpaceOnUse" x1="1.38" y1="62.1663" x2="23.53" y2="62.1663" gradientTransform="matrix(1 0 0 -1 0 64)">
			<stop  offset="0" style="stop-color:#010101"/>
			<stop  offset="0.1105" style="stop-color:#1C1C1D"/>
			<stop  offset="0.2798" style="stop-color:#875734"/>
			<stop  offset="0.487" style="stop-color:#A78573"/>
			<stop  offset="0.7239" style="stop-color:#CC8E6A"/>
			<stop  offset="0.9829" style="stop-color:#FBBC94"/>
			<stop  offset="1" style="stop-color:#FDCFAB"/>
		</linearGradient>
		<path style="fill:url(#SVGID_00000061431687074141638830000016350404803054903705_);" d="M23.53,1.84
			c0.01-0.28-4.09-0.51-12.28-0.96C7.1,0.65,3.68,0.49,1.38,0.39v2.89c0,0,4.68-0.21,9.74-0.48C19.06,2.37,23.52,2.13,23.53,1.84z"
			/>
		<ellipse class="st1" cx="1.39" cy="1.82" rx="0.81" ry="1.07"/>
	</g>
</g>
</svg>
